<svg id="verified_black_24dp" xmlns="http://www.w3.org/2000/svg" width="57" height="57" viewBox="0 0 57 57">
  <g id="Group_9179" data-name="Group 9179">
    <rect id="Rectangle_18066" data-name="Rectangle 18066" width="57" height="57" fill="none"/>
  </g>
  <g id="Group_9181" data-name="Group 9181" transform="translate(2.393 3.59)">
    <g id="Group_9180" data-name="Group 9180">
      <path id="Path_7331" data-name="Path 7331" d="M53.653,26.606l-5.84-6.677.814-8.831-8.64-1.963L35.464,1.5,27.327,4.994,19.189,1.5,14.666,9.135l-8.64,1.939.814,8.855L1,26.606l5.84,6.677-.814,8.855,8.64,1.963,4.523,7.659,8.137-3.518,8.137,3.494L39.987,44.1l8.64-1.963-.814-8.831ZM44.2,30.148,42.859,31.7l.191,2.034.431,4.667-4.547,1.029-2.01.455L35.871,41.66,33.5,45.681l-4.26-1.843-1.915-.814-1.891.814-4.26,1.843-2.369-4-1.053-1.771-2.01-.455L11.2,38.429l.431-4.691.191-2.034-1.34-1.556L7.39,26.63l3.087-3.542,1.34-1.556L11.6,19.474l-.431-4.643L15.719,13.8l2.01-.455,1.053-1.771,2.369-4.021L25.412,9.4l1.915.814L29.217,9.4l4.26-1.843,2.369,4.021L36.9,13.347l2.01.455,4.547,1.029L43.027,19.5l-.191,2.034,1.34,1.556,3.087,3.518Z" transform="translate(-1 -1.5)" fill="#1ea1f3"/>
      <path id="Path_7332" data-name="Path 7332" d="M15.385,21.943,9.832,16.366,6.29,19.932l9.095,9.119L32.952,11.436,29.41,7.87Z" transform="translate(6.371 7.376)" fill="#1ea1f3"/>
    </g>
  </g>
</svg>
